<?xml version="1.0" encoding="utf-8"?>
<!-- Generator: Adobe Illustrator 24.0.2, SVG Export Plug-In . SVG Version: 6.00 Build 0)  -->
<svg version="1.1" id="Слой_1" xmlns="http://www.w3.org/2000/svg" xmlns:xlink="http://www.w3.org/1999/xlink" x="0px" y="0px"
	 viewBox="0 0 1366 768" style="enable-background:new 0 0 1366 768;" xml:space="preserve">
<style type="text/css">
	.st0{fill:#C8DBE7;}
	.st1{fill:#263640;}
</style>
<g>
	<path class="st0" d="M89.51,238.66v28.56c-2.56-0.48-4.88-0.72-6.96-0.72c-11.68,0-20.8,3.4-27.36,10.2
		c-6.56,6.8-9.84,16.6-9.84,29.4v62.16h-30V240.1h28.56v18.72C52.55,245.38,67.75,238.66,89.51,238.66z"/>
	<path class="st0" d="M221.75,313.78H121.19c1.76,9.44,6.36,16.92,13.8,22.44c7.44,5.52,16.68,8.28,27.72,8.28
		c14.08,0,25.68-4.64,34.8-13.92l16.08,18.48c-5.76,6.88-13.04,12.08-21.84,15.6c-8.8,3.52-18.72,5.28-29.76,5.28
		c-14.08,0-26.48-2.8-37.2-8.4c-10.72-5.6-19-13.4-24.84-23.4c-5.84-10-8.76-21.32-8.76-33.96c0-12.48,2.84-23.72,8.52-33.72
		c5.68-10,13.56-17.8,23.64-23.4c10.08-5.6,21.44-8.4,34.08-8.4c12.48,0,23.64,2.76,33.48,8.28c9.84,5.52,17.52,13.28,23.04,23.28
		c5.52,10,8.28,21.56,8.28,34.68C222.23,306.98,222.07,309.94,221.75,313.78z M133.07,271.18c-6.64,5.68-10.68,13.24-12.12,22.68
		h72.72c-1.28-9.28-5.2-16.8-11.76-22.56c-6.56-5.76-14.72-8.64-24.48-8.64C147.83,262.66,139.71,265.5,133.07,271.18z"/>
	<path class="st0" d="M439.19,252.7c9.44,9.36,14.16,23.4,14.16,42.12v73.44h-30v-69.6c0-11.2-2.48-19.64-7.44-25.32
		c-4.96-5.68-12.08-8.52-21.36-8.52c-10.08,0-18.16,3.32-24.24,9.96c-6.08,6.64-9.12,16.12-9.12,28.44v65.04h-30v-69.6
		c0-11.2-2.48-19.64-7.44-25.32c-4.96-5.68-12.08-8.52-21.36-8.52c-10.24,0-18.36,3.28-24.36,9.84c-6,6.56-9,16.08-9,28.56v65.04
		h-30V240.1h28.56v16.32c4.8-5.76,10.8-10.16,18-13.2c7.2-3.04,15.2-4.56,24-4.56c9.6,0,18.12,1.8,25.56,5.4
		c7.44,3.6,13.32,8.92,17.64,15.96c5.28-6.72,12.08-11.96,20.4-15.72c8.32-3.76,17.52-5.64,27.6-5.64
		C416.95,238.66,429.75,243.34,439.19,252.7z"/>
	<path class="st0" d="M503.51,361.54c-10.4-5.6-18.52-13.4-24.36-23.4c-5.84-10-8.76-21.32-8.76-33.96
		c0-12.64,2.92-23.92,8.76-33.84c5.84-9.92,13.96-17.68,24.36-23.28c10.4-5.6,22.08-8.4,35.04-8.4c13.12,0,24.88,2.8,35.28,8.4
		c10.4,5.6,18.52,13.36,24.36,23.28c5.84,9.92,8.76,21.2,8.76,33.84c0,12.64-2.92,23.96-8.76,33.96c-5.84,10-13.96,17.8-24.36,23.4
		c-10.4,5.6-22.16,8.4-35.28,8.4C525.59,369.94,513.91,367.14,503.51,361.54z M565.91,333.22c7.2-7.36,10.8-17.04,10.8-29.04
		s-3.6-21.68-10.8-29.04c-7.2-7.36-16.32-11.04-27.36-11.04c-11.04,0-20.12,3.68-27.24,11.04c-7.12,7.36-10.68,17.04-10.68,29.04
		s3.56,21.68,10.68,29.04c7.12,7.36,16.2,11.04,27.24,11.04C549.59,344.26,558.71,340.58,565.91,333.22z"/>
	<path class="st0" d="M735.35,252.82c9.76,9.44,14.64,23.44,14.64,42v73.44h-30v-69.6c0-11.2-2.64-19.64-7.92-25.32
		c-5.28-5.68-12.8-8.52-22.56-8.52c-11.04,0-19.76,3.32-26.16,9.96c-6.4,6.64-9.6,16.2-9.6,28.68v64.8h-30V240.1h28.56v16.56
		c4.96-5.92,11.2-10.4,18.72-13.44c7.52-3.04,16-4.56,25.44-4.56C712.62,238.66,725.58,243.38,735.35,252.82z"/>
	<path class="st0" d="M853.18,361.3c-3.52,2.88-7.8,5.04-12.84,6.48c-5.04,1.44-10.36,2.16-15.96,2.16
		c-14.08,0-24.96-3.68-32.64-11.04c-7.68-7.36-11.52-18.08-11.52-32.16v-61.68H759.1v-24h21.12v-29.28h30v29.28h34.32v24h-34.32
		v60.96c0,6.24,1.52,11,4.56,14.28c3.04,3.28,7.44,4.92,13.2,4.92c6.72,0,12.32-1.76,16.8-5.28L853.18,361.3z"/>
</g>
<g>
	<path class="st1" d="M972.67,250.18c9.44,5.44,16.84,12.96,22.2,22.56c5.36,9.6,8.04,20.56,8.04,32.88c0,12.32-2.68,23.32-8.04,33
		c-5.36,9.68-12.76,17.2-22.2,22.56c-9.44,5.36-20,8.04-31.68,8.04c-11.04,0-21.04-2.6-30-7.8c-8.96-5.2-15.92-12.44-20.88-21.72
		v75.12h-12V242.98h11.52v29.52c4.96-9.6,11.96-17.08,21-22.44c9.04-5.36,19.16-8.04,30.36-8.04
		C952.67,242.02,963.23,244.74,972.67,250.18z M966.19,351.7c7.68-4.48,13.72-10.72,18.12-18.72c4.4-8,6.6-17.12,6.6-27.36
		c0-10.24-2.2-19.36-6.6-27.36c-4.4-8-10.44-14.24-18.12-18.72c-7.68-4.48-16.32-6.72-25.92-6.72s-18.2,2.24-25.8,6.72
		c-7.6,4.48-13.6,10.72-18,18.72c-4.4,8-6.6,17.12-6.6,27.36c0,10.24,2.2,19.36,6.6,27.36c4.4,8,10.4,14.24,18,18.72
		c7.6,4.48,16.2,6.72,25.8,6.72S958.51,356.18,966.19,351.7z"/>
	<path class="st1" d="M1057.63,249.34c8.16-4.88,18.08-7.32,29.76-7.32v11.76l-2.88-0.24c-13.92,0-24.8,4.36-32.64,13.08
		c-7.84,8.72-11.76,20.84-11.76,36.36v65.28h-12V242.98h11.52v27.36C1043.47,261.22,1049.47,254.22,1057.63,249.34z"/>
	<path class="st1" d="M1124.23,361.06c-9.52-5.44-17-13-22.44-22.68c-5.44-9.68-8.16-20.6-8.16-32.76c0-12.16,2.72-23.08,8.16-32.76
		c5.44-9.68,12.92-17.24,22.44-22.68c9.52-5.44,20.2-8.16,32.04-8.16c11.84,0,22.52,2.72,32.04,8.16c9.52,5.44,17,13,22.44,22.68
		c5.44,9.68,8.16,20.6,8.16,32.76c0,12.16-2.72,23.08-8.16,32.76c-5.44,9.68-12.92,17.24-22.44,22.68
		c-9.52,5.44-20.2,8.16-32.04,8.16C1144.43,369.22,1133.75,366.5,1124.23,361.06z M1182.07,351.7c7.6-4.48,13.6-10.72,18-18.72
		c4.4-8,6.6-17.12,6.6-27.36c0-10.24-2.2-19.36-6.6-27.36c-4.4-8-10.4-14.24-18-18.72c-7.6-4.48-16.2-6.72-25.8-6.72
		s-18.2,2.24-25.8,6.72c-7.6,4.48-13.6,10.72-18,18.72c-4.4,8-6.6,17.12-6.6,27.36c0,10.24,2.2,19.36,6.6,27.36
		c4.4,8,10.4,14.24,18,18.72c7.6,4.48,16.2,6.72,25.8,6.72S1174.47,356.18,1182.07,351.7z"/>
	<path class="st1" d="M1258.27,224.74v18.24h40.08v10.32h-39.84v114.96h-12V253.3h-23.04v-10.32h23.04v-19.2
		c0-10.56,3.04-18.96,9.12-25.2c6.08-6.24,14.64-9.36,25.68-9.36c4.8,0,9.4,0.68,13.8,2.04c4.4,1.36,8.04,3.4,10.92,6.12l-4.8,9.12
		c-5.12-4.64-11.6-6.96-19.44-6.96C1266.11,199.54,1258.27,207.94,1258.27,224.74z M1341.07,209.74c-1.92-1.84-2.88-4.12-2.88-6.84
		c0-2.72,0.96-5.04,2.88-6.96c1.92-1.92,4.24-2.88,6.96-2.88c2.72,0,5.04,0.92,6.96,2.76c1.92,1.84,2.88,4.12,2.88,6.84
		c0,2.72-0.96,5.04-2.88,6.96c-1.92,1.92-4.24,2.88-6.96,2.88C1345.31,212.5,1342.99,211.58,1341.07,209.74z M1342.03,242.98h12
		v125.28h-12V242.98z"/>
</g>
<g>
	<path class="st1" d="M21.3,480.19c-2.76-1.56-4.92-3.74-6.49-6.52c-1.56-2.78-2.35-5.92-2.35-9.42c0-3.54,0.78-6.7,2.35-9.49
		c1.56-2.78,3.73-4.94,6.49-6.49c2.76-1.54,5.89-2.31,9.38-2.31c2.9,0,5.53,0.56,7.9,1.69c2.37,1.13,4.29,2.77,5.76,4.93l-2.55,1.86
		c-1.29-1.79-2.89-3.14-4.8-4.04c-1.91-0.9-4.01-1.35-6.31-1.35c-2.81,0-5.33,0.63-7.56,1.9c-2.23,1.27-3.98,3.05-5.24,5.35
		c-1.27,2.3-1.9,4.95-1.9,7.94s0.63,5.63,1.9,7.93c1.26,2.3,3.01,4.08,5.24,5.35c2.23,1.27,4.75,1.9,7.56,1.9
		c2.3,0,4.4-0.45,6.31-1.35c1.91-0.9,3.51-2.24,4.8-4.04l2.55,1.86c-1.47,2.16-3.39,3.81-5.76,4.93c-2.37,1.13-5,1.69-7.9,1.69
		C27.19,482.54,24.06,481.75,21.3,480.19z"/>
	<path class="st1" d="M81.67,449.35H67.6v32.91h-3.45v-32.91H50.07v-3.1h31.6V449.35z"/>
	<path class="st1" d="M120.18,448.31c2.71,1.56,4.84,3.73,6.38,6.49c1.54,2.76,2.31,5.91,2.31,9.45c0,3.54-0.77,6.71-2.31,9.49
		c-1.54,2.78-3.67,4.95-6.38,6.49c-2.71,1.54-5.75,2.31-9.11,2.31c-3.17,0-6.05-0.75-8.63-2.24c-2.58-1.49-4.58-3.58-6-6.24v21.6
		h-3.45v-49.4h3.31v8.49c1.43-2.76,3.44-4.91,6.04-6.45c2.6-1.54,5.51-2.31,8.73-2.31C114.42,445.97,117.46,446.75,120.18,448.31z
		 M118.31,477.5c2.21-1.29,3.94-3.08,5.21-5.38c1.26-2.3,1.9-4.92,1.9-7.87c0-2.94-0.63-5.57-1.9-7.87c-1.27-2.3-3-4.09-5.21-5.38
		c-2.21-1.29-4.69-1.93-7.45-1.93c-2.76,0-5.23,0.65-7.42,1.93c-2.19,1.29-3.91,3.08-5.18,5.38c-1.27,2.3-1.9,4.92-1.9,7.87
		c0,2.94,0.63,5.57,1.9,7.87c1.26,2.3,2.99,4.09,5.18,5.38c2.18,1.29,4.66,1.93,7.42,1.93C113.62,479.43,116.1,478.79,118.31,477.5z
		"/>
	<path class="st1" d="M149.12,480.19c-2.74-1.56-4.89-3.74-6.45-6.52c-1.56-2.78-2.35-5.92-2.35-9.42c0-3.5,0.78-6.63,2.35-9.42
		c1.56-2.78,3.71-4.96,6.45-6.52c2.74-1.56,5.81-2.35,9.21-2.35c3.4,0,6.47,0.78,9.21,2.35c2.74,1.56,4.89,3.74,6.45,6.52
		c1.56,2.78,2.35,5.92,2.35,9.42c0,3.5-0.78,6.64-2.35,9.42c-1.56,2.78-3.71,4.96-6.45,6.52c-2.74,1.56-5.81,2.35-9.21,2.35
		C154.93,482.54,151.86,481.75,149.12,480.19z M165.75,477.5c2.18-1.29,3.91-3.08,5.17-5.38c1.26-2.3,1.9-4.92,1.9-7.87
		c0-2.94-0.63-5.57-1.9-7.87c-1.27-2.3-2.99-4.09-5.17-5.38c-2.19-1.29-4.66-1.93-7.42-1.93c-2.76,0-5.23,0.65-7.42,1.93
		c-2.19,1.29-3.91,3.08-5.18,5.38c-1.27,2.3-1.9,4.92-1.9,7.87c0,2.94,0.63,5.57,1.9,7.87c1.26,2.3,2.99,4.09,5.18,5.38
		c2.18,1.29,4.66,1.93,7.42,1.93C161.09,479.43,163.56,478.79,165.75,477.5z"/>
	<path class="st1" d="M191.45,446.24h3.45v30.7l25.67-30.7h3.04v36.02h-3.45v-30.71l-25.67,30.71h-3.04V446.24z"/>
	<path class="st1" d="M266.45,449.35h-14.08v32.91h-3.45v-32.91h-14.08v-3.1h31.6V449.35z"/>
	<path class="st1" d="M306.75,465.08h-30.98c0.09,2.81,0.8,5.3,2.14,7.49c1.33,2.19,3.14,3.88,5.42,5.07
		c2.28,1.2,4.84,1.79,7.69,1.79c2.35,0,4.52-0.42,6.52-1.28c2-0.85,3.67-2.1,5-3.76l2,2.28c-1.56,1.89-3.53,3.34-5.9,4.35
		c-2.37,1.01-4.93,1.52-7.69,1.52c-3.59,0-6.79-0.78-9.59-2.35c-2.81-1.56-5-3.73-6.59-6.49c-1.59-2.76-2.38-5.91-2.38-9.45
		c0-3.5,0.75-6.63,2.24-9.42c1.49-2.78,3.55-4.96,6.18-6.52c2.62-1.56,5.57-2.35,8.83-2.35c3.27,0,6.2,0.77,8.8,2.31
		c2.6,1.54,4.65,3.69,6.14,6.45c1.49,2.76,2.24,5.89,2.24,9.38L306.75,465.08z M282.81,450.69c-2.02,1.13-3.65,2.71-4.86,4.76
		c-1.22,2.05-1.92,4.36-2.1,6.93h27.6c-0.14-2.58-0.83-4.88-2.07-6.9c-1.24-2.02-2.88-3.61-4.9-4.76c-2.02-1.15-4.3-1.72-6.83-1.72
		C287.11,449,284.83,449.57,282.81,450.69z"/>
	<path class="st1" d="M349.19,446.24v36.02h-3.45v-32.91h-18.77l-0.48,9.59c-0.28,4.97-0.69,9.13-1.24,12.49
		c-0.55,3.36-1.5,6.07-2.83,8.14c-1.33,2.07-3.17,3.11-5.52,3.11c-0.69,0-1.68-0.16-2.97-0.48l0.34-2.97
		c0.74,0.18,1.29,0.28,1.66,0.28c1.93,0,3.4-0.94,4.42-2.83c1.01-1.89,1.7-4.23,2.07-7.04c0.37-2.81,0.67-6.46,0.9-10.97l0.62-12.42
		H349.19z"/>
	<path class="st1" d="M392.59,462.29c2.35,1.91,3.52,4.7,3.52,8.38c0,3.82-1.24,6.74-3.73,8.76c-2.48,2.02-6.1,3.01-10.83,2.97
		l-13.59-0.14v-36.02h3.45v12.97l10.97,0.14C386.84,459.4,390.24,460.38,392.59,462.29z M389.76,477.43
		c1.89-1.52,2.83-3.77,2.83-6.76c0-2.9-0.92-5.05-2.76-6.45c-1.84-1.4-4.62-2.15-8.35-2.24l-10.07-0.07v17.6l10.07,0.14
		C385.11,479.69,387.87,478.95,389.76,477.43z"/>
	<path class="st1" d="M409.97,446.24h3.45v16.42h24.43v-16.42h3.45v36.02h-3.45V465.7h-24.43v16.56h-3.45V446.24z"/>
	<path class="st1" d="M465.21,480.19c-2.74-1.56-4.89-3.74-6.45-6.52c-1.56-2.78-2.35-5.92-2.35-9.42c0-3.5,0.78-6.63,2.35-9.42
		c1.56-2.78,3.71-4.96,6.45-6.52c2.74-1.56,5.81-2.35,9.21-2.35c3.4,0,6.47,0.78,9.21,2.35c2.74,1.56,4.89,3.74,6.45,6.52
		c1.56,2.78,2.35,5.92,2.35,9.42c0,3.5-0.78,6.64-2.35,9.42c-1.56,2.78-3.71,4.96-6.45,6.52c-2.74,1.56-5.81,2.35-9.21,2.35
		C471.02,482.54,467.94,481.75,465.21,480.19z M481.84,477.5c2.18-1.29,3.91-3.08,5.17-5.38c1.26-2.3,1.9-4.92,1.9-7.87
		c0-2.94-0.63-5.57-1.9-7.87c-1.27-2.3-2.99-4.09-5.17-5.38c-2.19-1.29-4.66-1.93-7.42-1.93c-2.76,0-5.23,0.65-7.42,1.93
		c-2.19,1.29-3.91,3.08-5.18,5.38c-1.27,2.3-1.9,4.92-1.9,7.87c0,2.94,0.63,5.57,1.9,7.87c1.26,2.3,2.99,4.09,5.18,5.38
		c2.18,1.29,4.66,1.93,7.42,1.93C477.18,479.43,479.65,478.79,481.84,477.5z"/>
	<path class="st1" d="M505.05,462.18h17.73v3.11h-17.73V462.18z"/>
	<path class="st1" d="M565.64,448.31c2.71,1.56,4.84,3.73,6.38,6.49c1.54,2.76,2.31,5.91,2.31,9.45c0,3.54-0.77,6.71-2.31,9.49
		c-1.54,2.78-3.67,4.95-6.38,6.49c-2.71,1.54-5.75,2.31-9.11,2.31c-3.17,0-6.05-0.75-8.63-2.24c-2.58-1.49-4.58-3.58-6-6.24v21.6
		h-3.45v-49.4h3.31v8.49c1.43-2.76,3.44-4.91,6.04-6.45c2.6-1.54,5.51-2.31,8.73-2.31C559.89,445.97,562.92,446.75,565.64,448.31z
		 M563.77,477.5c2.21-1.29,3.94-3.08,5.21-5.38c1.26-2.3,1.9-4.92,1.9-7.87c0-2.94-0.63-5.57-1.9-7.87c-1.27-2.3-3-4.09-5.21-5.38
		c-2.21-1.29-4.69-1.93-7.45-1.93c-2.76,0-5.23,0.65-7.42,1.93c-2.19,1.29-3.91,3.08-5.18,5.38c-1.27,2.3-1.9,4.92-1.9,7.87
		c0,2.94,0.63,5.57,1.9,7.87c1.26,2.3,2.99,4.09,5.18,5.38c2.18,1.29,4.66,1.93,7.42,1.93C559.08,479.43,561.57,478.79,563.77,477.5
		z"/>
	<path class="st1" d="M620.15,465.08h-30.98c0.09,2.81,0.8,5.3,2.14,7.49c1.33,2.19,3.14,3.88,5.42,5.07
		c2.28,1.2,4.84,1.79,7.69,1.79c2.35,0,4.52-0.42,6.52-1.28c2-0.85,3.67-2.1,5-3.76l2,2.28c-1.56,1.89-3.53,3.34-5.9,4.35
		c-2.37,1.01-4.93,1.52-7.69,1.52c-3.59,0-6.79-0.78-9.59-2.35c-2.81-1.56-5-3.73-6.59-6.49c-1.59-2.76-2.38-5.91-2.38-9.45
		c0-3.5,0.75-6.63,2.24-9.42c1.5-2.78,3.55-4.96,6.18-6.52c2.62-1.56,5.57-2.35,8.83-2.35c3.27,0,6.2,0.77,8.8,2.31
		c2.6,1.54,4.65,3.69,6.14,6.45c1.49,2.76,2.24,5.89,2.24,9.38L620.15,465.08z M596.2,450.69c-2.02,1.13-3.65,2.71-4.86,4.76
		c-1.22,2.05-1.92,4.36-2.1,6.93h27.6c-0.14-2.58-0.83-4.88-2.07-6.9c-1.24-2.02-2.88-3.61-4.9-4.76c-2.02-1.15-4.3-1.72-6.83-1.72
		C600.5,449,598.23,449.57,596.2,450.69z"/>
	<path class="st1" d="M674.52,446.24v36.02h-3.17v-30.5l-15.66,25.88h-1.59l-15.59-25.81v30.43h-3.17v-36.02h3.38l16.28,27.25
		l16.35-27.25H674.52z"/>
	<path class="st1" d="M698.43,480.19c-2.74-1.56-4.89-3.74-6.45-6.52c-1.56-2.78-2.35-5.92-2.35-9.42c0-3.5,0.78-6.63,2.35-9.42
		c1.56-2.78,3.71-4.96,6.45-6.52c2.74-1.56,5.81-2.35,9.21-2.35s6.47,0.78,9.21,2.35c2.74,1.56,4.89,3.74,6.45,6.52
		c1.56,2.78,2.35,5.92,2.35,9.42c0,3.5-0.78,6.64-2.35,9.42c-1.56,2.78-3.71,4.96-6.45,6.52c-2.74,1.56-5.81,2.35-9.21,2.35
		S701.16,481.75,698.43,480.19z M715.05,477.5c2.18-1.29,3.91-3.08,5.17-5.38c1.26-2.3,1.9-4.92,1.9-7.87c0-2.94-0.63-5.57-1.9-7.87
		c-1.27-2.3-2.99-4.09-5.17-5.38c-2.19-1.29-4.66-1.93-7.42-1.93c-2.76,0-5.23,0.65-7.42,1.93c-2.19,1.29-3.91,3.08-5.17,5.38
		c-1.27,2.3-1.9,4.92-1.9,7.87c0,2.94,0.63,5.57,1.9,7.87c1.26,2.3,2.99,4.09,5.17,5.38c2.18,1.29,4.66,1.93,7.42,1.93
		C710.4,479.43,712.87,478.79,715.05,477.5z"/>
	<path class="st1" d="M740.76,446.24h3.45v16.42h24.43v-16.42h3.45v36.02h-3.45V465.7h-24.43v16.56h-3.45V446.24z"/>
	<path class="st1" d="M814.93,449.35h-14.08v32.91h-3.45v-32.91h-14.08v-3.1h31.6V449.35z"/>
	<path class="st1" d="M826.18,446.24h3.45v16.42h24.43v-16.42h3.45v36.02h-3.45V465.7h-24.43v16.56h-3.45V446.24z"/>
	<path class="st1" d="M898.49,449.38c2.39,2.28,3.59,5.62,3.59,10.04v22.84h-3.31v-6.42c-1.15,2.12-2.83,3.76-5.04,4.93
		s-4.85,1.76-7.94,1.76c-4,0-7.17-0.94-9.49-2.83c-2.32-1.89-3.48-4.37-3.48-7.45c0-2.99,1.07-5.42,3.21-7.28
		c2.14-1.86,5.55-2.79,10.25-2.79h12.35v-2.9c0-3.36-0.91-5.91-2.73-7.66s-4.47-2.62-7.97-2.62c-2.39,0-4.68,0.41-6.87,1.24
		c-2.18,0.83-4.04,1.93-5.55,3.31l-1.73-2.48c1.79-1.61,3.96-2.86,6.49-3.76c2.53-0.9,5.17-1.35,7.93-1.35
		C892.67,445.97,896.1,447.11,898.49,449.38z M893.9,477.64c2.09-1.38,3.67-3.38,4.73-6v-6.76h-12.28c-3.54,0-6.11,0.64-7.69,1.93
		c-1.59,1.29-2.38,3.06-2.38,5.31c0,2.35,0.87,4.2,2.62,5.55c1.75,1.36,4.21,2.04,7.38,2.04
		C889.27,479.71,891.81,479.02,893.9,477.64z"/>
	<path class="st1" d="M946.51,446.24v36.02h-3.17v-12.42h-12.01c-0.83,0-1.43-0.02-1.79-0.07l-8.9,12.49h-3.79l9.32-12.9
		c-2.94-0.64-5.2-1.91-6.76-3.79c-1.56-1.89-2.35-4.32-2.35-7.31c0-3.96,1.32-6.95,3.97-8.97c2.64-2.02,6.27-3.04,10.87-3.04H946.51
		z M931.68,467.22h11.66v-17.94h-11.25c-7.73,0-11.59,3.04-11.59,9.11C920.5,464.28,924.23,467.22,931.68,467.22z"/>
	<path class="st1" d="M999.09,465.56h-8.76v16.7h-3.45v-36.02h3.45v16.35h8.76l13.59-16.35h3.79l-14.63,17.46l15.73,18.56h-4.14
		L999.09,465.56z"/>
	<path class="st1" d="M1033.76,480.19c-2.74-1.56-4.89-3.74-6.45-6.52c-1.56-2.78-2.35-5.92-2.35-9.42c0-3.5,0.78-6.63,2.35-9.42
		c1.56-2.78,3.71-4.96,6.45-6.52c2.74-1.56,5.81-2.35,9.21-2.35s6.47,0.78,9.21,2.35c2.74,1.56,4.89,3.74,6.45,6.52
		c1.56,2.78,2.35,5.92,2.35,9.42c0,3.5-0.78,6.64-2.35,9.42c-1.56,2.78-3.71,4.96-6.45,6.52c-2.74,1.56-5.81,2.35-9.21,2.35
		S1036.5,481.75,1033.76,480.19z M1050.39,477.5c2.18-1.29,3.91-3.08,5.17-5.38c1.26-2.3,1.9-4.92,1.9-7.87
		c0-2.94-0.63-5.57-1.9-7.87c-1.27-2.3-2.99-4.09-5.17-5.38c-2.19-1.29-4.66-1.93-7.42-1.93c-2.76,0-5.23,0.65-7.42,1.93
		c-2.19,1.29-3.91,3.08-5.17,5.38c-1.27,2.3-1.9,4.92-1.9,7.87c0,2.94,0.63,5.57,1.9,7.87c1.26,2.3,2.99,4.09,5.17,5.38
		c2.18,1.29,4.66,1.93,7.42,1.93C1045.73,479.43,1048.21,478.79,1050.39,477.5z"/>
	<path class="st1" d="M1115.28,446.24v36.02h-3.17v-30.5l-15.66,25.88h-1.59l-15.59-25.81v30.43h-3.17v-36.02h3.38l16.28,27.25
		l16.35-27.25H1115.28z"/>
	<path class="st1" d="M1165.52,446.24v36.02h-3.45v-32.91h-24.56v32.91h-3.45v-36.02H1165.52z"/>
	<path class="st1" d="M1206.5,449.38c2.39,2.28,3.59,5.62,3.59,10.04v22.84h-3.31v-6.42c-1.15,2.12-2.83,3.76-5.04,4.93
		s-4.85,1.76-7.94,1.76c-4,0-7.17-0.94-9.49-2.83c-2.32-1.89-3.48-4.37-3.48-7.45c0-2.99,1.07-5.42,3.21-7.28
		c2.14-1.86,5.55-2.79,10.25-2.79h12.35v-2.9c0-3.36-0.91-5.91-2.73-7.66s-4.47-2.62-7.97-2.62c-2.39,0-4.68,0.41-6.87,1.24
		c-2.18,0.83-4.04,1.93-5.55,3.31l-1.73-2.48c1.79-1.61,3.96-2.86,6.49-3.76c2.53-0.9,5.17-1.35,7.93-1.35
		C1200.68,445.97,1204.11,447.11,1206.5,449.38z M1201.91,477.64c2.09-1.38,3.67-3.38,4.73-6v-6.76h-12.28
		c-3.54,0-6.11,0.64-7.69,1.93c-1.59,1.29-2.38,3.06-2.38,5.31c0,2.35,0.87,4.2,2.62,5.55c1.75,1.36,4.21,2.04,7.38,2.04
		C1197.28,479.71,1199.82,479.02,1201.91,477.64z"/>
	<path class="st1" d="M1227.96,446.24h3.45v16.42h24.43v-16.42h3.45v36.02h-3.45V465.7h-24.43v16.56h-3.45V446.24z"/>
	<path class="st1" d="M1278.06,446.24h3.45v30.7l25.67-30.7h3.04v36.02h-3.45v-30.71l-25.67,30.71h-3.04V446.24z"/>
	<path class="st1" d="M1355.54,446.24v36.02h-3.17v-12.42h-12.01c-0.83,0-1.43-0.02-1.79-0.07l-8.9,12.49h-3.79l9.32-12.9
		c-2.94-0.64-5.2-1.91-6.76-3.79c-1.56-1.89-2.35-4.32-2.35-7.31c0-3.96,1.32-6.95,3.97-8.97c2.64-2.02,6.27-3.04,10.87-3.04
		H1355.54z M1340.71,467.22h11.66v-17.94h-11.25c-7.73,0-11.59,3.04-11.59,9.11C1329.53,464.28,1333.25,467.22,1340.71,467.22z"/>
</g>
</svg>
